<mxfile host="Electron" modified="2023-06-22T09:16:36.129Z" agent="Mozilla/5.0 (Windows NT 10.0; Win64; x64) AppleWebKit/537.36 (KHTML, like Gecko) draw.io/21.3.7 Chrome/112.0.5615.204 Electron/24.5.0 Safari/537.36" etag="WOpcD4uGZv7OseZi7C5o" version="21.3.7" type="device">
  <diagram id="kgpKYQtTHZ0yAKxKKP6v" name="Page-1">
    <mxGraphModel dx="864" dy="516" grid="1" gridSize="10" guides="1" tooltips="1" connect="1" arrows="1" fold="1" page="1" pageScale="1" pageWidth="850" pageHeight="1100" math="0" shadow="0">
      <root>
        <mxCell id="0" />
        <mxCell id="1" parent="0" />
        <mxCell id="aLJtTbbP9KNemyPxutxg-3" value="start stream" style="verticalAlign=bottom;endArrow=block;shadow=0;strokeWidth=1;entryX=-0.057;entryY=0.003;entryDx=0;entryDy=0;entryPerimeter=0;" parent="1" source="3nuBFxr9cyL0pnOWT2aG-5" target="aLJtTbbP9KNemyPxutxg-2" edge="1">
          <mxGeometry x="0.2019" relative="1" as="geometry">
            <mxPoint x="370" y="181" as="sourcePoint" />
            <mxPoint x="516.4499999999999" y="180.57999999999998" as="targetPoint" />
            <mxPoint as="offset" />
          </mxGeometry>
        </mxCell>
        <mxCell id="3nuBFxr9cyL0pnOWT2aG-5" value="Flask &#xa;Webserver" style="shape=umlLifeline;perimeter=lifelinePerimeter;container=1;collapsible=0;recursiveResize=0;rounded=0;shadow=0;strokeWidth=1;" parent="1" vertex="1">
          <mxGeometry x="260" y="80" width="100" height="440" as="geometry" />
        </mxCell>
        <mxCell id="3nuBFxr9cyL0pnOWT2aG-6" value="" style="points=[];perimeter=orthogonalPerimeter;rounded=0;shadow=0;strokeWidth=1;" parent="3nuBFxr9cyL0pnOWT2aG-5" vertex="1">
          <mxGeometry x="45" y="80" width="10" height="320" as="geometry" />
        </mxCell>
        <mxCell id="aLJtTbbP9KNemyPxutxg-6" value="" style="points=[];perimeter=orthogonalPerimeter;rounded=0;shadow=0;strokeWidth=1;" parent="3nuBFxr9cyL0pnOWT2aG-5" vertex="1">
          <mxGeometry x="55" y="140" width="10" height="20" as="geometry" />
        </mxCell>
        <mxCell id="GluO-uRs4UZaKFrnOnQ_-44" value="stop stream" style="verticalAlign=bottom;endArrow=block;shadow=0;strokeWidth=1;entryX=-0.057;entryY=0.003;entryDx=0;entryDy=0;entryPerimeter=0;" parent="3nuBFxr9cyL0pnOWT2aG-5" edge="1">
          <mxGeometry x="0.2019" relative="1" as="geometry">
            <mxPoint x="55" y="400" as="sourcePoint" />
            <mxPoint x="199" y="400" as="targetPoint" />
            <mxPoint as="offset" />
          </mxGeometry>
        </mxCell>
        <mxCell id="3nuBFxr9cyL0pnOWT2aG-8" value="open webpage" style="verticalAlign=bottom;endArrow=block;entryX=0;entryY=0;shadow=0;strokeWidth=1;" parent="1" target="3nuBFxr9cyL0pnOWT2aG-6" edge="1">
          <mxGeometry relative="1" as="geometry">
            <mxPoint x="175" y="160.00000000000023" as="sourcePoint" />
            <mxPoint as="offset" />
          </mxGeometry>
        </mxCell>
        <mxCell id="aLJtTbbP9KNemyPxutxg-1" value="ESP32-CAM&#xa;Webserver" style="shape=umlLifeline;perimeter=lifelinePerimeter;container=1;collapsible=0;recursiveResize=0;rounded=0;shadow=0;strokeWidth=1;" parent="1" vertex="1">
          <mxGeometry x="410" y="80" width="100" height="460" as="geometry" />
        </mxCell>
        <mxCell id="aLJtTbbP9KNemyPxutxg-2" value="" style="points=[];perimeter=orthogonalPerimeter;rounded=0;shadow=0;strokeWidth=1;" parent="aLJtTbbP9KNemyPxutxg-1" vertex="1">
          <mxGeometry x="45" y="100" width="10" height="300" as="geometry" />
        </mxCell>
        <mxCell id="aLJtTbbP9KNemyPxutxg-5" value="mjpeg chunks" style="verticalAlign=bottom;endArrow=block;shadow=0;strokeWidth=1;" parent="1" target="aLJtTbbP9KNemyPxutxg-6" edge="1">
          <mxGeometry x="-0.0625" relative="1" as="geometry">
            <mxPoint x="460" y="220" as="sourcePoint" />
            <mxPoint x="360" y="240" as="targetPoint" />
            <mxPoint as="offset" />
            <Array as="points" />
          </mxGeometry>
        </mxCell>
        <mxCell id="3nuBFxr9cyL0pnOWT2aG-9" value="mjpeg chunks" style="verticalAlign=bottom;endArrow=block;shadow=0;strokeWidth=1;entryX=1.176;entryY=0.321;entryDx=0;entryDy=0;entryPerimeter=0;" parent="1" edge="1">
          <mxGeometry x="0.0597" relative="1" as="geometry">
            <mxPoint x="320" y="240" as="sourcePoint" />
            <mxPoint x="176.76" y="239.88" as="targetPoint" />
            <Array as="points" />
            <mxPoint as="offset" />
          </mxGeometry>
        </mxCell>
        <mxCell id="GluO-uRs4UZaKFrnOnQ_-29" value="" style="shape=umlLifeline;perimeter=lifelinePerimeter;whiteSpace=wrap;html=1;container=1;dropTarget=0;collapsible=0;recursiveResize=0;outlineConnect=0;portConstraint=eastwest;newEdgeStyle={&quot;edgeStyle&quot;:&quot;elbowEdgeStyle&quot;,&quot;elbow&quot;:&quot;vertical&quot;,&quot;curved&quot;:0,&quot;rounded&quot;:0};participant=umlActor;" parent="1" vertex="1">
          <mxGeometry x="160" y="80" width="25" height="360" as="geometry" />
        </mxCell>
        <mxCell id="GluO-uRs4UZaKFrnOnQ_-30" value="" style="html=1;points=[];perimeter=orthogonalPerimeter;outlineConnect=0;targetShapes=umlLifeline;portConstraint=eastwest;newEdgeStyle={&quot;edgeStyle&quot;:&quot;elbowEdgeStyle&quot;,&quot;elbow&quot;:&quot;vertical&quot;,&quot;curved&quot;:0,&quot;rounded&quot;:0};" parent="GluO-uRs4UZaKFrnOnQ_-29" vertex="1">
          <mxGeometry x="7.5" y="80" width="10" height="250" as="geometry" />
        </mxCell>
        <mxCell id="GluO-uRs4UZaKFrnOnQ_-31" value="loop" style="shape=umlFrame;whiteSpace=wrap;html=1;pointerEvents=0;fillColor=#fff2cc;strokeColor=#d6b656;" parent="1" vertex="1">
          <mxGeometry x="120" y="195" width="390" height="65" as="geometry" />
        </mxCell>
        <mxCell id="GluO-uRs4UZaKFrnOnQ_-32" value="" style="shape=umlLifeline;perimeter=lifelinePerimeter;whiteSpace=wrap;html=1;container=1;dropTarget=0;collapsible=0;recursiveResize=0;outlineConnect=0;portConstraint=eastwest;newEdgeStyle={&quot;edgeStyle&quot;:&quot;elbowEdgeStyle&quot;,&quot;elbow&quot;:&quot;vertical&quot;,&quot;curved&quot;:0,&quot;rounded&quot;:0};participant=umlActor;" parent="1" vertex="1">
          <mxGeometry x="50" y="80" width="21.25" height="450" as="geometry" />
        </mxCell>
        <mxCell id="GluO-uRs4UZaKFrnOnQ_-33" value="" style="html=1;points=[];perimeter=orthogonalPerimeter;outlineConnect=0;targetShapes=umlLifeline;portConstraint=eastwest;newEdgeStyle={&quot;edgeStyle&quot;:&quot;elbowEdgeStyle&quot;,&quot;elbow&quot;:&quot;vertical&quot;,&quot;curved&quot;:0,&quot;rounded&quot;:0};" parent="GluO-uRs4UZaKFrnOnQ_-32" vertex="1">
          <mxGeometry x="5" y="220" width="10" height="200" as="geometry" />
        </mxCell>
        <mxCell id="GluO-uRs4UZaKFrnOnQ_-43" value="" style="shape=umlDestroy;whiteSpace=wrap;html=1;strokeWidth=3;targetShapes=umlLifeline;" parent="GluO-uRs4UZaKFrnOnQ_-32" vertex="1">
          <mxGeometry x="-1.25" y="440" width="22.5" height="20" as="geometry" />
        </mxCell>
        <mxCell id="GluO-uRs4UZaKFrnOnQ_-34" value="open webpage" style="verticalAlign=bottom;endArrow=block;shadow=0;strokeWidth=1;" parent="1" source="GluO-uRs4UZaKFrnOnQ_-33" edge="1">
          <mxGeometry x="-0.6" relative="1" as="geometry">
            <mxPoint x="100" y="320.0000000000002" as="sourcePoint" />
            <mxPoint as="offset" />
            <mxPoint x="300" y="300" as="targetPoint" />
            <Array as="points">
              <mxPoint x="130" y="300" />
            </Array>
          </mxGeometry>
        </mxCell>
        <mxCell id="GluO-uRs4UZaKFrnOnQ_-36" value="" style="endArrow=classic;html=1;rounded=0;" parent="1" source="3nuBFxr9cyL0pnOWT2aG-5" target="GluO-uRs4UZaKFrnOnQ_-32" edge="1">
          <mxGeometry width="50" height="50" relative="1" as="geometry">
            <mxPoint x="303" y="340" as="sourcePoint" />
            <mxPoint x="320" y="240" as="targetPoint" />
            <Array as="points">
              <mxPoint x="160" y="350" />
            </Array>
          </mxGeometry>
        </mxCell>
        <mxCell id="GluO-uRs4UZaKFrnOnQ_-37" value="mjpeg chunks" style="edgeLabel;html=1;align=center;verticalAlign=middle;resizable=0;points=[];" parent="GluO-uRs4UZaKFrnOnQ_-36" vertex="1" connectable="0">
          <mxGeometry x="-0.2433" y="1" relative="1" as="geometry">
            <mxPoint x="25" y="-11" as="offset" />
          </mxGeometry>
        </mxCell>
        <mxCell id="GluO-uRs4UZaKFrnOnQ_-39" value="loop" style="shape=umlFrame;whiteSpace=wrap;html=1;pointerEvents=0;fillColor=#fff2cc;strokeColor=#d6b656;" parent="1" vertex="1">
          <mxGeometry x="10" y="310" width="340" height="65" as="geometry" />
        </mxCell>
        <mxCell id="GluO-uRs4UZaKFrnOnQ_-40" value="close webpage" style="verticalAlign=bottom;endArrow=block;entryX=0;entryY=0;shadow=0;strokeWidth=1;" parent="1" edge="1">
          <mxGeometry x="0.0769" relative="1" as="geometry">
            <mxPoint x="170" y="410.0000000000002" as="sourcePoint" />
            <mxPoint as="offset" />
            <mxPoint x="300" y="410" as="targetPoint" />
          </mxGeometry>
        </mxCell>
        <mxCell id="GluO-uRs4UZaKFrnOnQ_-41" value="" style="shape=umlDestroy;whiteSpace=wrap;html=1;strokeWidth=3;targetShapes=umlLifeline;" parent="1" vertex="1">
          <mxGeometry x="162.5" y="430" width="22.5" height="20" as="geometry" />
        </mxCell>
        <mxCell id="GluO-uRs4UZaKFrnOnQ_-42" value="close webpage" style="verticalAlign=bottom;endArrow=block;shadow=0;strokeWidth=1;" parent="1" source="GluO-uRs4UZaKFrnOnQ_-33" edge="1">
          <mxGeometry x="-0.5319" relative="1" as="geometry">
            <mxPoint x="120" y="500.0000000000002" as="sourcePoint" />
            <mxPoint as="offset" />
            <mxPoint x="300" y="481" as="targetPoint" />
            <Array as="points">
              <mxPoint x="190" y="480" />
            </Array>
          </mxGeometry>
        </mxCell>
        <mxCell id="EgjTCGQerBhfaMDJ07iG-1" value="Client1" style="text;html=1;strokeColor=none;fillColor=none;align=center;verticalAlign=middle;whiteSpace=wrap;rounded=0;" vertex="1" parent="1">
          <mxGeometry x="170" y="90" width="60" height="30" as="geometry" />
        </mxCell>
        <mxCell id="EgjTCGQerBhfaMDJ07iG-2" value="Client2" style="text;html=1;strokeColor=none;fillColor=none;align=center;verticalAlign=middle;whiteSpace=wrap;rounded=0;" vertex="1" parent="1">
          <mxGeometry x="60" y="90" width="60" height="30" as="geometry" />
        </mxCell>
      </root>
    </mxGraphModel>
  </diagram>
</mxfile>
